<svg xmlns="http://www.w3.org/2000/svg" width="36" height="36" viewBox="0 0 36 36"><defs><style>.a{fill:none;}</style></defs><g transform="translate(-485.984 -645)"><path class="a" d="M0,0H36V36H0Z" transform="translate(485.984 645)"/><path d="M8.577,7.451a.809.809,0,0,0-.056-.608L4.6.174A.314.314,0,0,0,4.343,0a.32.32,0,0,0-.269.174L.091,6.843a.809.809,0,0,0-.056.608q.1.33.325.33h3.1V29.458a.725.725,0,0,0,.1.4.3.3,0,0,0,.258.156h.969a.3.3,0,0,0,.258-.156.725.725,0,0,0,.1-.4V7.781H8.252Q8.487,7.781,8.577,7.451Z" transform="translate(489 667.668) rotate(-90)"/></g></svg>