<svg xmlns="http://www.w3.org/2000/svg" width="28" height="28" viewBox="0 0 28 28"><defs><style>.a{fill:#385c8e;}.b{fill:none;}</style></defs><g transform="translate(-565.999 -530)"><path class="a" d="M127,10.509h2.166v8.9a.319.319,0,0,0,.319.318h3.674a.319.319,0,0,0,.319-.318V10.551h2.491a.319.319,0,0,0,.317-.282l.378-3.281a.319.319,0,0,0-.317-.354h-2.869V4.581c0-.619.334-.933.993-.933h1.876a.319.319,0,0,0,.319-.318V.32a.319.319,0,0,0-.319-.32h-2.7A4.959,4.959,0,0,0,130.4,1.219a3.391,3.391,0,0,0-1.13,3.014v2.4H127a.319.319,0,0,0-.319.318v3.237A.319.319,0,0,0,127,10.509Z" transform="translate(448.302 534)"/><path class="b" d="M0,0H28V28H0Z" transform="translate(565.999 530)"/></g></svg>