<svg xmlns="http://www.w3.org/2000/svg" width="28" height="28" viewBox="0 0 28 28"><defs><style>.a{fill:none;}.b{fill:#6238f2;}.c{fill:#fff;}</style></defs><g transform="translate(24.18 6.59) rotate(90)"><path class="a" d="M0,0H28V28H0Z" transform="translate(-6.59 24.18) rotate(-90)"/><g transform="translate(-2.59 -1.48)"><path class="b" d="M42.2,4a.9.9,0,0,0-.9.9v20.02a.9.9,0,0,0,1.8,0V4.9A.9.9,0,0,0,42.2,4Z" transform="translate(-39.039 -3.076)"/><path class="a" d="M40.377,2A1.074,1.074,0,0,0,39.3,3.072V23.093a1.074,1.074,0,0,0,2.148,0V3.072A1.074,1.074,0,0,0,40.377,2Zm0,21.814a.722.722,0,0,1-.722-.721V3.072a.722.722,0,0,1,1.443,0V23.093A.722.722,0,0,1,40.377,23.814Z" transform="translate(-37.216 -1.253)"/><path class="c" d="M48.106,119.53a.176.176,0,0,0-.176.176v1.14a.176.176,0,1,0,.352,0v-1.14A.176.176,0,0,0,48.106,119.53Z" transform="translate(-45.083 -108.446)"/><circle class="b" cx="2.232" cy="2.232" r="2.232" transform="translate(3.156 17.348) rotate(45)"/><path class="b" d="M195.314,4a.9.9,0,0,0-.9.9v20.02a.9.9,0,0,0,1.8,0V4.9A.9.9,0,0,0,195.314,4Z" transform="translate(-178.666 -3.076)"/><path class="b" d="M48.493,8.464a2.236,2.236,0,0,1-.285-.019,2.232,2.232,0,0,0,0-4.427,2.232,2.232,0,1,1,.285,4.445Z" transform="translate(-45.336 14.273)"/><path class="a" d="M193.49,2a1.074,1.074,0,0,0-1.074,1.072V23.093a1.074,1.074,0,0,0,2.148,0V3.072A1.074,1.074,0,0,0,193.49,2Zm0,21.814a.722.722,0,0,1-.722-.721V3.072a.722.722,0,0,1,1.443,0V23.093A.722.722,0,0,1,193.49,23.814Z" transform="translate(-176.842 -1.253)"/><circle class="b" cx="2.232" cy="2.232" r="2.232" transform="translate(16.64 0) rotate(45)"/><path class="b" d="M201.606,205.786a2.234,2.234,0,0,1-.285-.019,2.232,2.232,0,0,0,0-4.427,2.232,2.232,0,1,1,.285,4.446Z" transform="translate(-184.962 -200.398)"/><path class="b" d="M181.449,201.321a2.236,2.236,0,0,1,.285.019,2.232,2.232,0,0,0,0,4.427,2.232,2.232,0,1,1-.285-4.446Z" transform="translate(-164.805 -200.397)"/><path class="b" d="M118.758,4a.9.9,0,0,0-.9.9v20.02a.9.9,0,0,0,1.8,0V4.9A.9.9,0,0,0,118.758,4Z" transform="translate(-108.853 -3.076)"/><path class="a" d="M116.934,2a1.074,1.074,0,0,0-1.074,1.072V23.093a1.074,1.074,0,0,0,2.148,0V3.072A1.074,1.074,0,0,0,116.934,2Zm0,21.814a.722.722,0,0,1-.722-.721V3.072a.722.722,0,0,1,1.443,0V23.093A.722.722,0,0,1,116.934,23.814Z" transform="translate(-107.029 -1.253)"/><ellipse class="b" cx="2.232" cy="2.232" rx="2.232" ry="2.232" transform="translate(7.668 9.74)"/><path class="a" d="M179.626,199.322a2.408,2.408,0,1,0,2.408,2.408A2.411,2.411,0,0,0,179.626,199.322Zm0,4.464a2.056,2.056,0,1,1,2.056-2.056A2.058,2.058,0,0,1,179.626,203.786Z" transform="translate(-162.983 -198.574)"/><path class="b" d="M125.05,105.508a2.236,2.236,0,0,1-.285-.019,2.232,2.232,0,0,0,0-4.427,2.232,2.232,0,1,1,.285,4.445Z" transform="translate(-115.15 -91.304)"/><path class="b" d="M104.893,101.044a2.235,2.235,0,0,1,.285.019,2.232,2.232,0,0,0,0,4.427,2.232,2.232,0,1,1-.285-4.445Z" transform="translate(-94.993 -91.304)"/><path class="b" d="M28.336,4a2.236,2.236,0,0,1,.285.019,2.232,2.232,0,0,0,0,4.427A2.232,2.232,0,1,1,28.336,4Z" transform="translate(-25.179 14.273)"/><g transform="translate(0.749 9.548)"><path class="a" d="M103.069,99.044a2.408,2.408,0,1,0,2.408,2.408A2.411,2.411,0,0,0,103.069,99.044Zm0,4.464a2.056,2.056,0,1,1,2.056-2.056A2.058,2.058,0,0,1,103.069,103.508Z" transform="translate(-93.918 -99.044)"/><path class="a" d="M26.512,2A2.408,2.408,0,1,0,28.92,4.408,2.411,2.411,0,0,0,26.512,2Zm0,4.464a2.056,2.056,0,1,1,2.056-2.056A2.058,2.058,0,0,1,26.512,6.464Z" transform="translate(-24.104 6.549)"/></g></g></g></svg>