<svg xmlns="http://www.w3.org/2000/svg" width="28.8" height="28.8" viewBox="0 0 28.8 28.8"><defs><style>.a{fill:none;}.b{fill:#757575;}</style></defs><g transform="translate(-4 -3)"><path class="a" d="M0,0H28.8V28.8H0Z" transform="translate(4 3)"/><g transform="translate(73.536 209.282)"><path class="a" d="M0,0H1.108V1.108H0Z" transform="translate(-61.683 -192.611)"/><g transform="translate(-64.276 -200.705)"><g transform="translate(0.403 0.403)"><path class="b" d="M227.326,230l.3-1.77-2.117-2.065,2.928-.423.8-1.629-.706-1.428-1.307,2.654-2.928.423,2.117,2.065-.5,2.916Zm0,0" transform="translate(-215.658 -214.121)"/><path class="b" d="M75.612,14.946a3.86,3.86,0,0,1,3.86-3.86c.125,0,.246.008.367.016a3.861,3.861,0,1,0-2.751,6.88,3.861,3.861,0,0,1-1.476-3.037Zm0,0" transform="translate(-71.03 -10.279)"/><path class="b" d="M18.437,246.289a6.528,6.528,0,0,1,1.355.141,6.365,6.365,0,0,0-3.372-.948,6.464,6.464,0,0,0-6.421,6.7l2.057,0a6.419,6.419,0,0,1,6.38-5.892Zm0,0" transform="translate(-10 -235.996)"/></g><path class="b" d="M67.865,8.812A4.263,4.263,0,1,0,63.6,4.549,4.263,4.263,0,0,0,67.865,8.812Zm0-7.719a3.456,3.456,0,1,1-3.456,3.456,3.456,3.456,0,0,1,3.456-3.456Zm0,0" transform="translate(-61.037 -0.286)"/><path class="b" d="M6.82,235.484a6.694,6.694,0,0,0-4.832,2.029A7.18,7.18,0,0,0,0,242.59a.416.416,0,0,0,.117.286.4.4,0,0,0,.286.117l10.325-.02v-.807l-9.909.02a6.308,6.308,0,0,1,1.75-4.11,5.882,5.882,0,0,1,4.255-1.783h.012a5.918,5.918,0,0,1,4.13,1.649l.561-.581a6.729,6.729,0,0,0-4.691-1.875s-.008,0-.016,0Zm0,0" transform="translate(0 -225.998)"/><path class="b" d="M223.418,215.8l-2.714-.415-1.2-2.472a.4.4,0,0,0-.359-.226.4.4,0,0,0-.363.222l-1.234,2.452-2.718.375a.4.4,0,0,0-.226.686l1.952,1.932-.484,2.7a.4.4,0,0,0,.157.4.394.394,0,0,0,.423.032l2.44-1.258,2.42,1.295a.4.4,0,0,0,.19.048.386.386,0,0,0,.234-.077.407.407,0,0,0,.165-.4l-.444-2.71,1.98-1.9a.4.4,0,0,0,.1-.411A.416.416,0,0,0,223.418,215.8Zm-2.472,2.158a.392.392,0,0,0-.117.355l.347,2.113-1.888-1.008a.4.4,0,0,0-.19-.048.433.433,0,0,0-.186.044l-1.9.98.379-2.105a.408.408,0,0,0-.113-.359l-1.52-1.5,2.121-.29a.4.4,0,0,0,.306-.218l.96-1.912.932,1.928a.394.394,0,0,0,.3.222l2.113.323Zm0,0" transform="translate(-205.834 -204.12)"/></g></g></g></svg>