<svg xmlns="http://www.w3.org/2000/svg" xmlns:xlink="http://www.w3.org/1999/xlink" width="28" height="28" viewBox="0 0 28 28"><defs><style>.a{fill:url(#a);}.b{fill:url(#b);}.c{fill:none;}</style><linearGradient id="a" x1="0.092" y1="0.908" x2="0.908" y2="0.092" gradientUnits="objectBoundingBox"><stop offset="0" stop-color="#ffc107"/><stop offset="0.507" stop-color="#f44336"/><stop offset="0.99" stop-color="#9c27b0"/></linearGradient><linearGradient id="b" x1="0.146" y1="0.854" x2="0.854" y2="0.146" xlink:href="#a"/></defs><g transform="translate(-24.621 2)"><g transform="translate(27.62 2)"><path class="a" d="M14.4,0H6.548A6.548,6.548,0,0,0,0,6.548V14.4a6.548,6.548,0,0,0,6.548,6.548H14.4A6.548,6.548,0,0,0,20.952,14.4V6.548A6.548,6.548,0,0,0,14.4,0Zm4.583,14.4A4.593,4.593,0,0,1,14.4,18.987H6.548A4.593,4.593,0,0,1,1.965,14.4V6.548A4.593,4.593,0,0,1,6.548,1.965H14.4a4.593,4.593,0,0,1,4.583,4.583Z"/><path class="b" d="M9.229,4a5.229,5.229,0,1,0,5.229,5.229A5.229,5.229,0,0,0,9.229,4Zm0,8.5A3.269,3.269,0,1,1,12.5,9.229,3.269,3.269,0,0,1,9.229,12.5Z" transform="translate(1.246 1.246)"/><circle class="b" cx="0.699" cy="0.699" r="0.699" transform="translate(15.407 4.147)"/></g><path class="c" d="M0,0H28V28H0Z" transform="translate(24.621 -2)"/></g></svg>