<svg xmlns="http://www.w3.org/2000/svg" width="28" height="28" viewBox="0 0 28 28"><defs><style>.a{fill:none;}.b{fill:#117eb8;}.c{fill:#fff;fill-rule:evenodd;}</style></defs><g transform="translate(1.449 4)"><path class="a" d="M0,0H28V28H0Z" transform="translate(-1.449 -4)"/><g transform="translate(2.55)"><path class="b" d="M3.993,0h11.98a3.993,3.993,0,0,1,3.993,3.993v11.98a3.993,3.993,0,0,1-3.993,3.993H3.993A3.993,3.993,0,0,1,0,15.973V3.993A3.993,3.993,0,0,1,3.993,0Z" transform="translate(0)"/><path class="c" d="M12.591,16.864h2.756v8.867H12.591Zm1.379-4.408a1.6,1.6,0,1,1-1.6,1.6,1.6,1.6,0,0,1,1.6-1.6Zm3.106,4.408H19.72v1.212h.037a2.893,2.893,0,0,1,2.607-1.432c2.793,0,3.306,1.836,3.306,4.224v4.864H22.916V21.419c0-1.028-.019-2.351-1.432-2.351-1.434,0-1.654,1.12-1.654,2.276v4.389H17.076Z" transform="translate(-8.888 -9.215)"/></g></g></svg>