<svg xmlns="http://www.w3.org/2000/svg" width="28" height="28" viewBox="0 0 28 28"><defs><style>.a{fill:none;}.b{fill:#fff;}.c{fill:#6238f2;}</style></defs><g transform="translate(-4 -3)"><path class="a" d="M0,0H28V28H0Z" transform="translate(4 3)"/><g transform="translate(-9.801 -48.882)"><path class="b" d="M202.958,65.565V76.523a1.565,1.565,0,0,1-1.565,1.565,14.823,14.823,0,0,0-6.252-3.174L192,74.175V67.913l3.141-.739A14.825,14.825,0,0,0,201.392,64a1.566,1.566,0,0,1,1.565,1.565Z" transform="translate(-167.391 -7.609)"/><path class="c" d="M24.783,144h2.348v6.262H24.783a.783.783,0,0,1-.783-.783v-4.7A.783.783,0,0,1,24.783,144Z" transform="translate(-7.609 -83.695)"/><path class="b" d="M92.3,272v2.348l-3.131,1.174L88,274.739V272Z" transform="translate(-68.478 -205.434)"/><path class="c" d="M385.565,65.565V76.523A1.565,1.565,0,0,1,384,78.088V64a1.566,1.566,0,0,1,1.565,1.565Z" transform="translate(-349.998 -7.609)"/><path class="c" d="M112,312v4.7l1.174,1.957h1.957V312Z" transform="translate(-91.304 -243.477)"/><path class="c" d="M177.957,264v1.957l-1.957.783V264Z" transform="translate(-152.173 -197.825)"/><path class="c" d="M88,144h5.087v6.262H88Z" transform="translate(-68.478 -83.695)"/><path class="c" d="M17.174,66.958h1.957v2.348a.391.391,0,0,0,.174.326l1,.667v2.921a.391.391,0,0,0,.056.2l1.174,1.957a.391.391,0,0,0,.336.19h1.957a.391.391,0,0,0,.391-.391v-6l1.711-.684a.391.391,0,0,0,.246-.363v-.8l1.486.35a14.493,14.493,0,0,1,6.086,3.091.391.391,0,0,0,.255.094,1.959,1.959,0,0,0,1.957-1.957V57.957A1.959,1.959,0,0,0,34,56a.392.392,0,0,0-.255.094,14.493,14.493,0,0,1-6.086,3.091l-3.1.729h-7.39A1.175,1.175,0,0,0,16,61.087v4.7a1.175,1.175,0,0,0,1.174,1.174ZM19.913,69.1V66.958h3.522v1.686l-2.689,1.008Zm2.178,5.688-1-1.674V70.359l2.348-.881v5.305Zm3.3-6.918-1.174.47V66.958h.346l.828.195Zm9.784-9.91V68.914a1.175,1.175,0,0,1-.783,1.106V56.851a1.175,1.175,0,0,1,.783,1.106Zm-7.336,1.99a15.287,15.287,0,0,0,5.771-2.735V69.659a15.287,15.287,0,0,0-5.771-2.735L25,66.256V60.615Zm-3.622,6.228h-4.3V60.7h4.3Zm-7.436-5.087a.392.392,0,0,1,.391-.391h1.957v5.479H17.174a.392.392,0,0,1-.391-.391Z" transform="translate(0 0)"/><circle class="c" cx="0.5" cy="0.5" r="0.5" transform="translate(20.74 67.783)"/><path class="c" d="M456,200h1.957v.783H456Z" transform="translate(-418.476 -136.956)"/><path class="c" d="M0,0H.783V1.957H0Z" transform="translate(36.671 65.098) rotate(-45)"/><path class="c" d="M0,0H1.957V.783H0Z" transform="translate(36.67 61.776) rotate(-45)"/></g></g></svg>