<svg xmlns="http://www.w3.org/2000/svg" width="28" height="28" viewBox="0 0 28 28"><defs><style>.a{fill:none;}.b{fill:#03a9f4;}</style></defs><g transform="translate(-685 -530)"><path class="a" d="M0,0H28V28H0Z" transform="translate(685 530)"/><path class="b" d="M24.646,50.37a10.536,10.536,0,0,1-2.911.8,5.023,5.023,0,0,0,2.223-2.8,10.1,10.1,0,0,1-3.2,1.224,5.052,5.052,0,0,0-8.74,3.454A5.2,5.2,0,0,0,12.13,54.2,14.3,14.3,0,0,1,1.716,48.92a5.052,5.052,0,0,0,1.553,6.751,4.994,4.994,0,0,1-2.283-.622v.056a5.075,5.075,0,0,0,4.048,4.963,5.045,5.045,0,0,1-1.324.167,4.468,4.468,0,0,1-.957-.086,5.1,5.1,0,0,0,4.722,3.518A10.154,10.154,0,0,1,1.209,65.82,9.464,9.464,0,0,1,0,65.752a14.228,14.228,0,0,0,7.751,2.266A14.279,14.279,0,0,0,22.131,53.642c0-.224-.008-.439-.019-.653a10.078,10.078,0,0,0,2.534-2.619Z" transform="translate(687 486.001)"/></g></svg>