<svg xmlns="http://www.w3.org/2000/svg" width="24" height="24" viewBox="0 0 24 24"><defs><style>.a{opacity:0.54;}.b{fill:none;}</style></defs><g class="a" transform="translate(27 -29.8)"><path class="b" d="M0,0H24V24H0Z" transform="translate(-27 29.8)"/><g transform="translate(-24.645 34.001)"><circle cx="1.276" cy="1.276" r="1.276" transform="translate(5.724 4.058)"/><path d="M17.473,34.03a3.929,3.929,0,0,0-2.2-1.046V26.5a2.551,2.551,0,0,0-.727-1.772A2.476,2.476,0,0,0,12.777,24H2.5a2.551,2.551,0,0,0-1.772.727A2.476,2.476,0,0,0,0,26.5V37.078A2.551,2.551,0,0,0,.727,38.85a2.476,2.476,0,0,0,1.772.727H12.44a3.749,3.749,0,0,0,5.033-5.547ZM.939,26.5A1.483,1.483,0,0,1,1.4,25.418a1.555,1.555,0,0,1,1.1-.461H12.777a1.573,1.573,0,0,1,1.559,1.559v5.529l-2.623-2.623a.476.476,0,0,0-.673,0L7.088,33.392,4.412,30.7a.476.476,0,0,0-.673,0l-2.8,2.835ZM2.481,38.673v-.035a1.555,1.555,0,0,1-1.1-.461,1.617,1.617,0,0,1-.443-1.1v-2.2l3.137-3.154L6.752,34.4a.493.493,0,0,0,.673,0l3.952-3.969,2.587,2.6-.159.053a1.645,1.645,0,0,0-.23.071c-.071.018-.142.053-.213.071a.531.531,0,0,0-.142.071,1.647,1.647,0,0,0-.177.089l-.266.159c-.053.035-.089.053-.142.089-.035.018-.053.035-.089.053a2.138,2.138,0,0,0-.425.372,3.749,3.749,0,0,0-1.1,2.658,3.9,3.9,0,0,0,.089.78c.018.071.035.124.053.195.053.177.106.354.177.532v.018a3.251,3.251,0,0,0,.23.425Zm14.3,0a2.8,2.8,0,0,1-3.916.035c-.071-.071-.142-.159-.213-.23-.053-.053-.106-.124-.159-.177a1.683,1.683,0,0,1-.177-.3c-.035-.071-.071-.124-.106-.195a1.5,1.5,0,0,1-.089-.3c-.018-.071-.053-.159-.071-.23A2.933,2.933,0,0,1,12,36.706a2.844,2.844,0,0,1,.815-1.985,2.74,2.74,0,0,1,1.985-.815,2.844,2.844,0,0,1,1.985.815,2.77,2.77,0,0,1,.815,1.985A2.834,2.834,0,0,1,16.782,38.673Z" transform="translate(0 -24)"/><path d="M300.505,264.542a.618.618,0,0,0-.159-.106.518.518,0,0,0-.159-.035h-.035a.517.517,0,0,0-.159.035.419.419,0,0,0-.159.106l-1.1,1.1a.476.476,0,0,0,.673.673l.284-.284v1.949a.478.478,0,1,0,.957,0V266.03l.284.284a.476.476,0,0,0,.673-.673Z" transform="translate(-285.371 -253.75)"/></g></g></svg>