<svg xmlns="http://www.w3.org/2000/svg" width="24" height="24" viewBox="0 0 24 24"><defs><style>.a{fill:none;}.b{fill:#57a4ff;}.c{fill:#fff;}</style></defs><g transform="translate(-0.812 -6.804)"><path class="a" d="M0,0H24V24H0Z" transform="translate(0.812 6.804)"/><g transform="translate(3.14 9.139)"><path class="b" d="M25.125,12.589,22.8,11.556,21.768,9.232,19.239,9.5,17.182,8,15.124,9.5,12.6,9.232l-1.034,2.323L9.239,12.589,9.5,15.117,8.012,17.174,9.5,19.233,9.239,21.76l2.323,1.033L12.6,25.117l2.528-.264,2.057,1.492,2.058-1.492,2.527.264L22.8,22.794l2.324-1.034-.264-2.528,1.492-2.057-1.492-2.058Zm-9.777,8.253-2.6-2.6.865-.862,1.73,1.727,5.187-5.187.865.865Zm0,0" transform="translate(-7.698 -7.698)"/><g transform="translate(0.008 0)"><path class="b" d="M18.9,9.3,17.479,7.334l.252-2.411a.306.306,0,0,0-.18-.311l-2.215-.986L14.35,1.41a.308.308,0,0,0-.311-.18l-2.412.252L9.663.059a.306.306,0,0,0-.359,0L7.341,1.482,4.929,1.23a.31.31,0,0,0-.311.18L3.632,3.625l-2.216.986a.306.306,0,0,0-.18.311l.252,2.412L.066,9.3a.306.306,0,0,0,0,.359l1.423,1.963-.252,2.412a.306.306,0,0,0,.18.311l2.216.986.986,2.216a.309.309,0,0,0,.311.18l2.412-.252L9.3,18.9a.306.306,0,0,0,.359,0l1.963-1.423,2.412.252a.307.307,0,0,0,.311-.18l.986-2.216,2.215-.986a.306.306,0,0,0,.18-.311l-.252-2.412L18.9,9.656a.306.306,0,0,0,0-.359Zm-1.987,2.058a.3.3,0,0,0-.057.211l.241,2.307-2.12.944a.3.3,0,0,0-.155.155l-.943,2.12-2.308-.241a.3.3,0,0,0-.211.057L9.484,18.27,7.605,16.908a.3.3,0,0,0-.179-.058.2.2,0,0,0-.031,0l-2.308.241-.943-2.12a.305.305,0,0,0-.155-.155l-2.121-.943.241-2.307a.306.306,0,0,0-.057-.211L.691,9.477,2.052,7.6a.306.306,0,0,0,.057-.211L1.868,5.079l2.12-.944a.3.3,0,0,0,.155-.155l.943-2.12L7.394,2.1a.308.308,0,0,0,.211-.057L9.484.684l1.879,1.362a.307.307,0,0,0,.211.057l2.308-.241.943,2.12a.305.305,0,0,0,.155.155l2.12.943-.241,2.307a.3.3,0,0,0,.057.211l1.361,1.879Zm0,0" transform="translate(-0.008 0)"/><path class="c" d="M132.364,155.055a.306.306,0,0,0-.432,0l-4.971,4.971-1.514-1.511a.306.306,0,0,0-.432,0l-.867.861a.306.306,0,0,0,0,.433l2.6,2.6a.306.306,0,0,0,.432,0l6.052-6.053a.306.306,0,0,0,0-.432Zm-5.4,6.7-2.163-2.163.432-.431,1.515,1.512a.306.306,0,0,0,.432,0l4.971-4.971.433.433Zm0,0" transform="translate(-119.318 -149.044)"/></g></g></g></svg>