<svg xmlns="http://www.w3.org/2000/svg" width="28" height="28" viewBox="0 0 28 28"><defs><style>.a{fill:red;}.b{fill:#fff;}.c{fill:none;}</style></defs><g transform="translate(-7.208 1)"><g transform="translate(9.946 4.983)"><path class="a" d="M30.3,36.509a2.864,2.864,0,0,0-2.014-2.03C26.51,34,19.387,34,19.387,34s-7.121,0-8.9.479a2.864,2.864,0,0,0-2.013,2.03,32.3,32.3,0,0,0,0,11.052,2.864,2.864,0,0,0,2.012,2.03c1.776.479,8.9.479,8.9.479s7.121,0,8.9-.479a2.864,2.864,0,0,0,2.014-2.03,32.329,32.329,0,0,0,0-11.052Z" transform="translate(-7.999 -34)"/><path class="b" d="M78,76.614l5.961-3.391L78,69.831Z" transform="translate(-68.946 -65.188)"/></g><path class="c" d="M0,0H28V28H0Z" transform="translate(7.208 -1)"/></g></svg>